<?xml version="1.0" ?><svg xmlns="http://www.w3.org/2000/svg" width="183" height="64" fill="none">
 <g>
  <title>Layer 1</title>
  <path d="m-93.64779,13.6081c-0.90888,0 -1.60249,-0.2512 -2.08084,-0.7534c-0.47836,-0.5023 -0.71754,-1.2079 -0.71754,-2.1168l0,-19.91148c0,-0.93279 0.23918,-1.63836 0.71754,-2.11672c0.50227,-0.47835 1.20784,-0.71753 2.11672,-0.71753l8.71801,0c2.8223,0 4.9988,0.68166 6.5295,2.04497c1.5308,1.36331 2.2962,3.26477 2.2962,5.70438c0,1.57858 -0.3469,2.94188 -1.0405,4.08998c-0.6936,1.148 -1.6981,2.033 -3.0136,2.6548c-1.2916,0.6219 -2.8821,0.9328 -4.7716,0.9328l0.287,-0.6099l1.471,0c1.0045,0 1.8775,0.2511 2.6189,0.7534c0.7654,0.4784 1.4232,1.2198 1.9733,2.2244l2.2243,4.1258c0.3349,0.5979 0.4903,1.1839 0.4664,1.7579c-0.0239,0.5741 -0.2392,1.0405 -0.6458,1.3992c-0.4066,0.3588 -1.0045,0.5382 -1.7938,0.5382c-0.7893,0 -1.4351,-0.1675 -1.9373,-0.5023c-0.4784,-0.3349 -0.9089,-0.8491 -1.2916,-1.5427l-3.4442,-6.3502c-0.3587,-0.6696 -0.8012,-1.1241 -1.3274,-1.3633c-0.5023,-0.2391 -1.1241,-0.3587 -1.86557,-0.3587l-2.72662,0l0,7.247c0,0.9089 -0.23918,1.6145 -0.71753,2.1168c-0.45444,0.5022 -1.1361,0.7534 -2.04497,0.7534zm2.7625,-14.1354l4.98689,0c1.4829,0 2.595,-0.299 3.3365,-0.8969c0.7653,-0.598 1.148,-1.4949 1.148,-2.69077c0,-1.17197 -0.3827,-2.05693 -1.148,-2.65487c-0.7415,-0.59795 -1.8536,-0.89692 -3.3365,-0.89692l-4.98689,0l0,7.13946z" fill="currentColor" id="svg_6"/>
  <path fill-rule="evenodd" clip-rule="evenodd" d="m8.111,18.2383c0.868,-0.8639 2.043,-1.349 3.268,-1.349c1.224,0 2.399,0.4851 3.267,1.349l0.003,0.0023l5.841,5.8418c0.531,0.5305 0.531,1.3907 0,1.9212c-0.53,0.5306 -1.39,0.5306 -1.921,0l-5.839,-5.8394c-0.001,-0.0003 0,0.0003 0,0c-0.359,-0.3566 -0.845,-0.5578 -1.351,-0.5578c-0.506,0 -0.992,0.2002 -1.351,0.5569c0,0.0003 0,0.0006 -0.001,0.0009l-3.527,3.5276c-0.001,0.0003 -0.001,0.0006 -0.001,0.0009c-0.357,0.3589 -0.557,0.8443 -0.557,1.3503c0,0.506 0.2,0.9914 0.557,1.3503c0,0.0003 0,-0.0003 0,0l5.84,5.8403c0.531,0.5306 0.531,1.3908 0,1.9213c-0.53,0.5306 -1.391,0.5306 -1.921,0l-5.8418,-5.8417l-0.0024,-0.0024c-0.8639,-0.8681 -1.3489,-2.043 -1.3489,-3.2678c0,-1.2248 0.485,-2.3997 1.3489,-3.2678l0.0024,-0.0024l3.5348,-3.5345z" fill="currentColor" id="svg_12"/>
  <path fill-rule="evenodd" clip-rule="evenodd" d="m17.415,25.0067c0.53,0.5306 0.53,1.3907 0,1.9213l-2.717,2.7171c-0.531,0.5305 -1.391,0.5305 -1.922,0c-0.53,-0.5306 -0.53,-1.3907 0,-1.9213l2.718,-2.7171c0.53,-0.5305 1.39,-0.5305 1.921,0z" fill="currentColor" id="svg_13"/>
  <path stroke="null" fill-rule="evenodd" clip-rule="evenodd" d="m28,23.5922c0.531,0.5305 0.531,1.3907 0,1.9213l-2.717,2.7171c-0.53,0.5305 -1.391,0.5305 -1.921,0c-0.531,-0.5306 -0.531,-1.3908 0,-1.9213l2.717,-2.7171c0.531,-0.5305 1.391,-0.5305 1.921,0z" fill="currentColor" id="svg_14"/>
  <path fill-rule="evenodd" clip-rule="evenodd" d="m24.003,33.5166c0.531,-0.5306 1.391,-0.5306 1.922,0l5.841,5.8417c1.808,1.8076 1.808,4.7328 0,6.5403l-3.532,3.5322c-1.807,1.8076 -4.733,1.8076 -6.54,0l-5.842,-5.8417c-0.53,-0.5305 -0.53,-1.3907 0,-1.9213c0.531,-0.5305 1.391,-0.5305 1.921,0l5.842,5.8418c0.747,0.7465 1.951,0.7465 2.698,0l3.532,-3.5322c0.747,-0.7465 0.747,-1.9513 0,-2.6978l-5.842,-5.8418c-0.53,-0.5305 -0.53,-1.3907 0,-1.9212z" fill="currentColor" id="svg_15"/>
  <path fill-rule="evenodd" clip-rule="evenodd" d="m25.259,19.4102c0.973,-0.9728 2.293,-1.5192 3.669,-1.5191c1.376,0.0002 2.695,0.547 3.668,1.5201c0.973,0.9731 1.519,2.2927 1.519,3.6687c0,1.376 -0.547,2.6955 -1.52,3.6684l-18.132,18.135l-0.002,0.0016c-0.472,0.4709 -1.053,0.8187 -1.691,1.0128l-5.9183,1.7946c-0.3523,0.1059 -0.7267,0.1144 -1.0835,0.0247c-0.3567,-0.0897 -0.6826,-0.2743 -0.9429,-0.5342c-0.2604,-0.2599 -0.4455,-0.5854 -0.5357,-0.9421c-0.0903,-0.3566 -0.0823,-0.731 0.023,-1.0835l0.0017,-0.0056l1.7946,-5.9124l0.0011,-0.0036c0.1957,-0.6383 0.5452,-1.2187 1.018,-1.6903c0,-0.0004 0.001,-0.0007 0.001,-0.0011l18.13,-18.134zm1.921,1.9216c0,0 0,-0.0001 0,0l-18.131,18.135l-0.002,0.0015c-0.157,0.1568 -0.273,0.3499 -0.339,0.5622c0,0.0005 0,0.0011 0,0.0016l-1.424,4.6897l4.695,-1.4236c0.212,-0.0646 0.406,-0.1802 0.563,-0.3367c0,-0.0003 0,0.0004 0,0l18.132,-18.1345c0.463,-0.4634 0.724,-1.0921 0.724,-1.7474c0,-0.6554 -0.26,-1.2839 -0.724,-1.7474c-0.463,-0.4635 -1.091,-0.7239 -1.747,-0.724c-0.655,0 -1.284,0.2604 -1.747,0.7236z" fill="currentColor" id="svg_16"/>
  <path fill-rule="evenodd" clip-rule="evenodd" d="m14.286,31.3653c0.531,-0.5306 1.391,-0.5306 1.922,0l5.434,5.4342c0.53,0.5305 0.53,1.3907 0,1.9212c-0.531,0.5306 -1.391,0.5306 -1.922,0l-5.434,-5.4342c-0.53,-0.5305 -0.53,-1.3907 0,-1.9212z" fill="currentColor" id="svg_17"/>
  <path fill="none" id="svg_23" d="m8.5,26c0,1 1,1 1,2c0,1 1.31074,3.08025 2,6c0.51374,2.17625 5.29289,6.29289 6,7c0.70711,0.70711 1,1 3,1c4,0 7,0 11,0c4,0 9,0 11,0c2,0 4,-1 6,-2c2,-1 3,-1 4,-1l1,-1l1,0" stroke="null"/>
  <path fill="none" id="svg_24" d="m55.5,29c-1,0 -1,-2 -4,-4c-3,-2 -9.29289,-4.58578 -10,-6c-0.70711,-1.41422 -3,-2 -7,-2l-5,-2l-1,0" stroke="null"/>
  <path fill="none" stroke="null" d="m-16.27249,39.42495l29.02962,0l8.97038,-3.4377l8.97038,3.4377l29.02961,0l-23.48541,2.12459l8.97084,3.4377l-23.48542,-2.12465l-23.48542,2.12465l8.97084,-3.4377l-23.48542,-2.12459z" id="svg_26"/>
  <path fill="none" d="m79.2825,26.74249l10.31316,0l3.18684,-8.78524l3.18685,8.78524l10.31315,0l-8.3435,5.42952l3.18701,8.78524l-8.34351,-5.42966l-8.34351,5.42966l3.18701,-8.78524l-8.34351,-5.42952l0.00001,0z" id="svg_27" stroke="null"/>
  <text font-weight="bold" transform="matrix(1.2864 0 0 1.97779 27.6836 -23.4234)" stroke="null" xml:space="preserve" text-anchor="start" font-family="'Cuprum'" font-size="20" id="svg_21" y="35.51322" x="5.97994" stroke-width="0" fill="currentColor">CVLAUNCH</text>
 </g>

</svg>